<?xml version="1.0" encoding="UTF-8"?>
<svg xmlns="http://www.w3.org/2000/svg" xmlns:xlink="http://www.w3.org/1999/xlink" viewBox="0 0 259.71 300">
  <defs>
    <style>
      .cls-1 {
        fill: url(#linear-gradient);
      }

      .cls-1, .cls-2, .cls-3, .cls-4, .cls-5, .cls-6, .cls-7, .cls-8, .cls-9, .cls-10, .cls-11, .cls-12, .cls-13, .cls-14, .cls-15, .cls-16, .cls-17 {
        stroke-width: 0px;
      }

      .cls-18 {
        fill: none;
        stroke: #969696;
        stroke-miterlimit: 10;
      }

      .cls-2 {
        fill: url(#linear-gradient-2);
      }

      .cls-19 {
        isolation: isolate;
      }

      .cls-3 {
        fill: #f9ae3b;
      }

      .cls-4 {
        fill: #603813;
      }

      .cls-5 {
        fill: #29a9e0;
      }

      .cls-6 {
        fill: #3a82af;
      }

      .cls-7 {
        fill: #42210b;
      }

      .cls-8 {
        fill: #ded9ff;
      }

      .cls-9 {
        fill: #cc8e56;
      }

      .cls-10 {
        fill: #bf272d;
      }

      .cls-11 {
        fill: #666;
      }

      .cls-12 {
        fill: #306c91;
      }

      .cls-13 {
        fill: #e6c7a6;
      }

      .cls-14 {
        fill: #ffc056;
      }

      .cls-15 {
        fill: #ffd45e;
      }

      .cls-16 {
        fill: #f0f0f0;
      }

      .cls-17 {
        fill: #ffddb8;
      }

      .cls-20 {
        mix-blend-mode: multiply;
        opacity: .75;
      }
    </style>
    <linearGradient id="linear-gradient" x1="172.58" y1="-84.94" x2="201.39" y2="-56.13" gradientTransform="translate(20.8 173.34) rotate(10.78)" gradientUnits="userSpaceOnUse">
      <stop offset="0" stop-color="#6a2f86"/>
      <stop offset="1" stop-color="#3a82af"/>
    </linearGradient>
    <linearGradient id="linear-gradient-2" x1="6.51" y1="360.97" x2="39.91" y2="394.36" gradientTransform="translate(-54.23 -218.66) rotate(-10.11)" xlink:href="#linear-gradient"/>
  </defs>
  <g class="cls-19">
    <g id="Layer_2" data-name="Layer 2">
      <g id="Layer_2-2" data-name="Layer 2">
        <g>
          <path class="cls-8" d="m37.03,255.73c-19.79-21.53-72.99-119.36,1.13-210.93,64.32-79.46,149.77-35.33,171.09-3.66,17.27,25.64,13.95,64.1,37.15,85.29,24.07,21.98,15.43,80.77-25.64,129.31-74.3,87.83-163.94,21.53-183.74,0Z"/>
          <g>
            <g>
              <path class="cls-5" d="m161.67,296.34v-57.87c-5.91-1.73-47.08-4.35-57.5,1.26-1.21,16.41-7.01,26.54-12.64,51.65,9.37,3.64,19.51,6.45,30.14,7.78l8.11-25.02,1.43,25.78c9.89.35,20.12-.68,30.46-3.59Z"/>
              <path class="cls-17" d="m181.09,184.89l5.13,13.09c3.78-7.13,14.38-24.52,21.55-26.41,4.91-5.29,12.09-9.07,3.78,2.27,6.8.38,8.31.38,8.31.38,0,0,.76-3.4,3.4-2.27,2.64-3.02,6.04-3.02,5.29-.38,1.89,0,3.4.76,3.02,1.89,1.51.38,3.4,1.89-2.27,3.78-4.53,3.78-9.93,8.57-17.9,8.99s-13.25,17.56-14.69,23.08c-2.52,9.65-8.81,15.53-13.43,13.01-11.45-6.24-19.31-31.9-19.31-31.9l17.12-5.53Z"/>
              <path class="cls-17" d="m80.25,179.72c-1.68,6.3-5.04,17.63-5.04,17.63-2.1-4.62-15.74-17.84-21.19-20.77s-7.13-7.13-10.49-7.55-1.26,3.36,2.52,8.39c-3.78-.42-9.23,0-9.23,0,0,0-.84-2.94-3.78-2.52-2.52-2.52-5.46-4.2-5.88,0-3.36-.84-3.36,1.68-3.36,1.68-2.1,1.26-2.52,2.52,2.52,3.78,3.36,3.36,11.75,7.6,15.53,7.97,8.39.84,15.95-3.36,23.08,18.05,3.49,10.47,16.97,13.1,21.4,5.04,9.23-16.79,13.01-23.08,13.01-23.08l-19.1-8.6Z"/>
              <path class="cls-6" d="m162.51,186.86c-.8,0-3.22,30.74.67,50.62.26,1.32-.82,2.51-2.16,2.39-15.36-1.43-39.58-1.12-56.8.09-1.25.09-2.25-1.04-2.01-2.27,3.97-19.91.67-56.71-.13-56.71-1.26,4.62-2.52,7.13-5.46,13.01-.84,0-15.74-3.99-19.52-8.18.84-2.94,9.44-23.29,16.16-30.85,5.65-6.35,18.05,0,27.91-4.41,0,0,1.47,8.37,11.54,13.31,10.07-4.94,8.6-13.73,8.6-13.73,9.86,3.57,21.61-2.31,28.75,5.25,6.25,6.62,10.49,26.02,11.75,30.22-3.74,4.99-15.11,9.65-15.95,9.65-1.68-2.52-2.1-4.62-3.36-8.39Z"/>
              <ellipse class="cls-17" cx="148.24" cy="124.01" rx="5.25" ry="2.94" transform="translate(9.99 259.07) rotate(-84.25)"/>
              <ellipse class="cls-17" cx="115.5" cy="121.92" rx="5.25" ry="2.94" transform="translate(-14.09 228.74) rotate(-86.05)"/>
              <path class="cls-17" d="m141.32,150.13c-.63-4.41-.63-11.96-.63-11.96-2.1.84-10.07,5.46-17.63-.84-.84,5.46,0,9.65-1.89,13.22s11.53,16.02,11.54,16.09c4.2-2.45,9.74-9.71,8.6-16.51Z"/>
              <g>
                <g class="cls-20">
                  <path class="cls-9" d="m146,111.21c-2.42-1.64-6.4-4.03-12.87-2.56-3.29-.85-6.02-1.35-10.07-.26-2.99.8-4.66,2.92-5.29,5.81-3.49,15.93,2.13,32.11,14.11,32.64,12.24.22,16.71-18.42,16.46-31.39-.03-1.68-.88-3.26-2.32-4.24Z"/>
                </g>
                <path class="cls-17" d="m146,109.58c-2.42-1.64-6.4-4.03-12.87-2.56-3.29-.85-6.02-1.35-10.07-.26-2.99.8-4.66,2.92-5.29,5.81-3.49,15.93,2.13,32.11,14.11,32.64,12.24.22,16.71-18.42,16.46-31.39-.03-1.68-.88-3.26-2.32-4.24Z"/>
              </g>
              <path class="cls-4" d="m130.4,118.35c-.31,0-.58-.23-.62-.55-.07-.54-.3-.88-.71-1.08-1.38-.67-4.49.36-6.1,1.33-.3.18-.68.08-.86-.22-.18-.3-.08-.68.22-.86,1.18-.71,5.05-2.48,7.3-1.39.8.39,1.29,1.1,1.41,2.06.04.34-.2.66-.54.7-.03,0-.05,0-.08,0Z"/>
              <path class="cls-4" d="m143.57,120.54c-.29,0-.55-.2-.61-.49-.06-.28-.36-.59-.83-.87-1.49-.88-4.28-1.24-5.85-.77-.33.1-.68-.09-.78-.42-.1-.33.09-.68.42-.78,1.88-.56,5.08-.15,6.85.89.8.47,1.28,1.04,1.42,1.68.07.34-.14.68-.48.75-.05,0-.09.01-.14.01Z"/>
              <path class="cls-4" d="m147.82,123.9c-3.99-6.72-3.78-11.01-4.2-13.53-5.88-.84-12.17-4.1-21.82.1-.84,6.71-5.04,13.85-5.04,13.85.25-6.22-.84-13.43.42-16.79s8.55-9.69,15.53-8.81,11.48-1.95,17.21.42c3.64,1.51,3.83,6.5,4.2,8.39s-.25,4.76-1.26,7.13c-.84,3.36-4.84,8.07-5.04,9.23Z"/>
              <circle class="cls-7" cx="126.42" cy="121.71" r="1.26"/>
              <circle class="cls-7" cx="138.59" cy="122.55" r="1.26"/>
              <path class="cls-7" d="m132.67,130.77c-.78,0-1.42-.14-1.48-.16-.11-.03-.18-.14-.16-.25.03-.11.14-.18.25-.16.03,0,2.7.6,3.6-.68.21-.3-.29-1.39-.73-2.36-.52-1.14-1.11-2.44-1.23-3.59-.01-.12.07-.22.19-.23.11-.01.22.07.23.19.11,1.08.69,2.34,1.2,3.46.6,1.32,1.04,2.28.69,2.77-.57.81-1.66,1.01-2.56,1.01Z"/>
              <path class="cls-4" d="m136.7,137.75c-.08,0-.16-.05-.19-.13-.07-.17-.13-.34-.19-.52-.29-.81-.57-1.58-1.4-1.97-1.34-.63-3.95-.2-8.21,1.35-.11.04-.23-.02-.27-.13-.04-.11.02-.23.13-.27,4.37-1.59,7.08-2.01,8.53-1.33.99.46,1.31,1.35,1.62,2.21.06.17.12.34.19.5.04.11,0,.23-.12.27-.03.01-.05.01-.08.01Z"/>
            </g>
            <path class="cls-12" d="m94.94,159.16c4.62,5.88,7.13,21.82,7.13,21.82l-2.1,6.3c-1.15-6.87-1.39-14.19-5.04-28.12Z"/>
            <path class="cls-12" d="m162.93,163.77c-2.94,15.95-.42,23.08-.42,23.08.84,3.36,3.36,8.39,3.36,8.39-2.52-14.27-2.52-20.98-2.94-31.48Z"/>
            <path class="cls-13" d="m78.15,205.74c-1.68-3.36-2.1-6.71-2.1-11.33q-.42,1.26-.84,2.94c-.84-1.68-2.52-3.36-2.52-3.36.84,5.46,2.94,10.07,5.46,11.75Z"/>
            <path class="cls-13" d="m186.43,197.77c-1.9,7.7-2.52,14.27-1.68,18.89-2.94-10.49,1.08-20,.42-20.98.84,1.26,1.26,2.1,1.26,2.1Z"/>
          </g>
          <path class="cls-1" d="m221.48,119c-11.05-2.1-21.72,5.15-23.82,16.2s5.15,21.72,16.2,23.82c11.05,2.1,21.72-5.15,23.82-16.2,2.1-11.05-5.15-21.72-16.2-23.82Zm-5.75,30.58c-6.1-1.15-10.01-6.56-8.87-12.66,1.12-5.99,6.73-9.61,12.83-8.47,6.06,1.14,9.93,6.58,8.81,12.53-1.14,6.06-6.71,9.74-12.77,8.6Z"/>
          <path class="cls-2" d="m29.06,116.19l-16.63,45.98,48.14-8.58-31.5-37.4Zm2.97,16.63l13.3,15.79-20.32,3.62,7.02-19.41Z"/>
          <g>
            <circle class="cls-3" cx="217.03" cy="222" r="15.76"/>
            <g>
              <circle class="cls-15" cx="213.76" cy="222.13" r="14.73"/>
              <path class="cls-3" d="m209.5,236.94c-8.16-2.35-12.9-10.9-10.55-19.06s10.9-12.9,19.06-10.55,12.9,10.9,10.55,19.06c-2.35,8.16-10.9,12.9-19.06,10.55Zm8.13-28.31c-7.44-2.14-15.24,2.18-17.38,9.62-2.14,7.44,2.18,15.24,9.62,17.38s15.24-2.18,17.38-9.62c2.14-7.44-2.18-15.24-9.62-17.38Z"/>
            </g>
            <path class="cls-3" d="m217.42,213.64l-.62,2.14c1.24.5,2.21,1.15,2.93,1.95l-2.04,2.17c-.59-.8-1.25-1.3-1.98-1.51-.45-.13-.84-.13-1.19,0-.34.13-.55.32-.63.58-.07.24-.02.49.14.77.16.28.41.53.74.77l.94.65c1.05.74,1.76,1.47,2.11,2.21.35.73.39,1.57.13,2.5-.16.57-.37,1.05-.63,1.45-.26.4-.58.73-.97.99-.39.26-.87.45-1.42.57-.55.12-1.2.19-1.95.21l-.63,2.2-1.63-.47.61-2.11c-.37-.11-.74-.26-1.13-.47s-.76-.44-1.12-.71c-.36-.26-.68-.54-.98-.84-.29-.29-.52-.58-.68-.86l2.2-2.26c.83,1.3,1.77,2.1,2.82,2.4.44.13.85.12,1.24-.03.39-.14.64-.4.75-.78.15-.52-.12-1.01-.82-1.48l-.92-.61c-.55-.36-1-.72-1.36-1.06-.36-.35-.63-.71-.82-1.08-.19-.37-.29-.76-.31-1.17-.02-.41.03-.86.17-1.34s.36-.98.64-1.41c.28-.43.63-.79,1.04-1.07.41-.29.87-.49,1.39-.62.52-.12,1.1-.13,1.73-.01l.62-2.14,1.63.47Z"/>
          </g>
          <g>
            <g>
              <circle class="cls-11" cx="71.02" cy="52.73" r="14.89"/>
              <path class="cls-11" d="m78.43,67.21c-7.99,4.09-17.81.91-21.89-7.07-4.09-7.99-.91-17.81,7.07-21.89s17.81-.91,21.89,7.07c4.09,7.99.91,17.81-7.07,21.89Zm-13.57-26.52c-6.64,3.4-9.27,11.56-5.88,18.19s11.56,9.27,18.19,5.88,9.27-11.56,5.88-18.19-11.56-9.27-18.19-5.88Z"/>
            </g>
            <g>
              <circle class="cls-16" cx="68.92" cy="55.21" r="14.89"/>
              <path class="cls-11" d="m76.33,69.7c-7.99,4.09-17.81.91-21.89-7.07-4.09-7.99-.91-17.81,7.07-21.89,7.99-4.09,17.81-.91,21.89,7.07,4.09,7.99.91,17.81-7.07,21.89Zm-13.57-26.52c-6.64,3.4-9.27,11.56-5.88,18.19s11.56,9.27,18.19,5.88,9.27-11.56,5.88-18.19-11.56-9.27-18.19-5.88Z"/>
            </g>
            <g>
              <line class="cls-16" x1="64.29" y1="45.71" x2="61.79" y2="40.82"/>
              <rect class="cls-11" x="62.63" y="40.52" width=".82" height="5.5" transform="translate(-12.79 33.46) rotate(-27.1)"/>
            </g>
            <g>
              <rect class="cls-6" x="65.85" y="46.83" width="1.92" height="8.51" transform="translate(-15.94 36.04) rotate(-27.1)"/>
              <polygon class="cls-6" points="66.84 46.93 63.62 44.84 63.42 48.67 66.84 46.93"/>
            </g>
            <g>
              <rect class="cls-10" x="68.23" y="53.06" width="6.03" height="1.92" transform="translate(-16.79 38.38) rotate(-27.1)"/>
              <polygon class="cls-10" points="72.56 51.2 76.39 51.39 74.31 54.61 72.56 51.2"/>
            </g>
            <circle class="cls-11" cx="68.92" cy="55.21" r="1.37"/>
            <g>
              <line class="cls-16" x1="75.58" y1="68.51" x2="73.08" y2="63.62"/>
              <rect class="cls-11" x="73.92" y="63.32" width=".82" height="5.5" transform="translate(-21.93 41.11) rotate(-27.1)"/>
            </g>
            <g>
              <line class="cls-16" x1="55.35" y1="62.16" x2="60.25" y2="59.65"/>
              <rect class="cls-11" x="55.05" y="60.49" width="5.5" height=".82" transform="translate(-21.4 33.01) rotate(-27.1)"/>
            </g>
            <g>
              <line class="cls-16" x1="77.76" y1="50.73" x2="82.65" y2="48.23"/>
              <rect class="cls-11" x="77.45" y="49.07" width="5.5" height=".82" transform="translate(-13.73 41.96) rotate(-27.1)"/>
            </g>
          </g>
          <g>
            <g>
              <path class="cls-14" d="m160.14,38.43c3.5-2.26,8-2.81,12.15-1.12,3.28,1.34,5.84,3.89,7.21,7.2,1.37,3.3,1.37,6.91,0,10.16-1.79,4.27-5.73,7.37-10.27,8.11-2.56.41-4.78,2.16-5.92,4.68l-8.99,1.76,2.22-4.85c2.18-4.79,6.49-8.13,11.51-8.94,2.03-.33,3.79-1.72,4.59-3.64.59-1.4.59-2.98-.01-4.42-.6-1.45-1.72-2.57-3.14-3.15-2.87-1.17-6.14.13-7.43,2.95l-6.78-3.09c1.09-2.4,2.81-4.31,4.87-5.64"/>
              <circle class="cls-14" cx="154.52" cy="77.72" r="5.22"/>
            </g>
            <path class="cls-18" d="m189.83,46.18c0,5.63.66,21.53-14.58,26.84"/>
            <path class="cls-18" d="m198.27,50.4c0,5.63.66,21.53-14.58,26.84"/>
            <path class="cls-18" d="m142.84,57.25c0-5.63-.66-21.53,14.58-26.84"/>
            <path class="cls-18" d="m134.4,53.03c0-5.63-.66-21.53,14.58-26.84"/>
          </g>
        </g>
      </g>
    </g>
  </g>
</svg>